PathFileType	4	(X/Y/Z)	c:/Users/goper/Files/vsCode/490R/osim_files/C05/C05_ROM.trc
DataRate	CameraRate	NumFrames	NumMarkers	Units                	OrigDataRate	OrigDataStartFrame	OrigNumFrames
250.00	250.00	4	36	mm	250.0	2500	3332
                Frame#	Time	LPSIS			LASIS			LTH1			LTH2			LTH3			LTH4			LLFE			LMFE			LSH1			LSH2			LSH3			LSH4			LLMAL			LMMAL			LCAL			LMTP5			LTOE			LMTP1			RPSIS			RASIS			RTH1			RTH2			RTH3			RTH4			RLFE			RMFE			RSH1			RSH2			RSH3			RSH4			RLMAL			RMMAL			RCAL			RMTP1			RTOE			RMTP5		
		X1	Y1	Z1	X2	Y2	Z2	X3	Y3	Z3	X4	Y4	Z4	X5	Y5	Z5	X6	Y6	Z6	X7	Y7	Z7	X8	Y8	Z8	X9	Y9	Z9	X10	Y10	Z10	X11	Y11	Z11	X12	Y12	Z12	X13	Y13	Z13	X14	Y14	Z14	X15	Y15	Z15	X16	Y16	Z16	X17	Y17	Z17	X18	Y18	Z18	X19	Y19	Z19	X20	Y20	Z20	X21	Y21	Z21	X22	Y22	Z22	X23	Y23	Z23	X24	Y24	Z24	X25	Y25	Z25	X26	Y26	Z26	X27	Y27	Z27	X28	Y28	Z28	X29	Y29	Z29	X30	Y30	Z30	X31	Y31	Z31	X32	Y32	Z32	X33	Y33	Z33	X34	Y34	Z34	X35	Y35	Z35	X36	Y36	Z36

2500	9.99600	-431.67447	1054.58167	404.12848	-232.79149	1033.47498	345.39148	-338.14944	709.78271	282.71747	-324.33432	648.32697	284.30252	-262.27112	720.02570	274.77502	-258.21335	658.56836	277.98145	-274.48840	546.48517	290.47998	-267.79846	529.14563	405.30573	-376.65579	374.62527	276.50775	-375.34842	330.13098	276.54889	-313.99130	370.57260	259.17731	-322.78836	327.81314	262.73889	-358.66205	96.29248	281.88846	-326.32068	107.96797	363.72394	-415.51721	68.78824	333.74326	-221.38821	40.63887	244.10382	-180.77052	65.50681	301.74701	-191.98602	45.96373	350.51437	-427.78812	1059.98572	510.87122	-235.38734	1036.95410	577.58630	-346.06650	705.65833	647.07434	-332.99301	644.08319	643.93756	-272.74432	713.96924	660.83331	-270.12540	651.10840	657.04785	-275.17648	539.56378	640.02112	-272.95746	512.29852	531.88629	-370.48819	389.56461	661.81451	-369.79337	341.35669	662.03345	-310.11221	381.91663	665.88403	-317.59027	335.72122	664.62653	-363.22055	97.07801	646.40808	-339.19235	108.97320	563.72241	-427.15668	68.55109	596.94458	-211.19588	42.56197	568.57703	-190.78871	65.04401	616.64447	-238.91850	33.72037	680.85315
2501	10.00000	-432.09271	1054.64783	404.06415	-233.40091	1033.28113	345.51511	-338.55515	709.55652	282.62204	-324.58740	648.15234	284.29172	-262.60791	719.89722	274.69525	-258.48984	658.47113	277.93994	-274.52737	546.42603	290.50330	-267.76688	529.13745	405.32809	-376.62115	374.58401	276.59222	-375.31708	330.09995	276.63779	-313.94540	370.53302	259.23425	-322.72134	327.77597	262.79187	-358.66110	96.27847	281.91232	-326.29404	107.95323	363.74600	-415.50464	68.76784	333.76541	-221.39531	40.64966	244.12033	-180.77496	65.50017	301.75983	-192.00150	45.97366	350.51089	-428.33023	1060.09167	510.77856	-236.07690	1036.78870	577.60394	-346.62744	705.47266	647.01868	-333.40216	643.90491	643.91760	-273.24741	713.88336	660.87164	-270.59387	650.98438	657.04688	-275.33429	539.50806	639.97778	-273.15240	512.27832	531.83685	-370.52005	389.48578	661.81769	-369.82776	341.28247	662.02435	-310.14566	381.85559	665.84192	-317.61057	335.66833	664.61145	-363.21014	97.05465	646.41241	-339.20773	108.98057	563.73315	-427.14044	68.48063	596.93573	-211.19257	42.58425	568.57593	-190.81535	65.07173	616.66846	-238.95134	33.70004	680.84229
2502	10.00400	-432.56384	1054.74121	404.02884	-234.06071	1033.06775	345.63132	-338.87500	709.33636	282.50424	-324.82269	647.96106	284.21567	-262.99805	719.77423	274.59186	-258.72653	658.40314	277.89951	-274.57544	546.37134	290.52072	-267.75046	529.15222	405.33984	-376.55414	374.52426	276.64001	-375.24185	330.02789	276.69983	-313.89209	370.49438	259.28638	-322.67282	327.74377	262.84427	-358.65674	96.27023	281.92001	-326.27368	107.97344	363.73251	-415.51123	68.76794	333.76312	-221.41649	40.63563	244.10408	-180.76826	65.53677	301.75418	-192.01236	45.96583	350.48773	-429.03287	1060.23169	510.68976	-236.82898	1036.59253	577.61694	-347.21143	705.29767	646.96088	-333.84964	643.74750	643.87799	-273.72888	713.81897	660.91345	-271.08826	650.90369	657.06946	-275.50180	539.46021	639.93280	-273.30261	512.29834	531.75720	-370.56299	389.44055	661.80328	-369.86496	341.24768	661.99103	-310.19620	381.80777	665.79401	-317.64206	335.62497	664.54688	-363.26904	97.04099	646.40851	-339.21390	108.97362	563.72870	-427.18719	68.44930	596.94995	-211.22292	42.61966	568.57593	-190.84058	65.11135	616.66638	-238.97878	33.69828	680.80933
2503	10.00800	-433.22552	1054.88843	403.97037	-234.63011	1032.89587	345.75937	-339.24075	709.11353	282.45053	-325.07724	647.75610	284.17697	-263.34299	719.70087	274.49973	-258.99536	658.32062	277.81601	-274.63342	546.30493	290.53748	-267.68182	529.19891	405.30298	-376.49066	374.49237	276.70706	-375.19461	329.99478	276.77145	-313.82532	370.45984	259.33173	-322.61435	327.70026	262.89725	-358.65121	96.26023	281.93445	-326.26157	108.00171	363.72025	-415.49930	68.78065	333.75275	-221.43105	40.64516	244.08502	-180.79208	65.52848	301.72195	-192.00394	45.99755	350.46375	-429.76364	1060.42432	510.64639	-237.65906	1036.42822	577.67761	-347.73953	705.13123	646.96008	-334.34924	643.62000	643.84644	-274.27206	713.73126	660.92584	-271.58469	650.81232	657.06305	-275.64407	539.43304	639.88245	-273.47339	512.29572	531.70129	-370.58505	389.41110	661.77759	-369.90219	341.20004	661.97559	-310.19431	381.79550	665.73688	-317.64493	335.61334	664.49756	-363.30060	97.04105	646.40088	-339.25189	108.97829	563.71460	-427.19595	68.43286	596.92957	-211.25443	42.64589	568.58380	-190.85394	65.16102	616.64459	-238.99469	33.71862	680.80450
